Coordinates
version=1
nRows=12
nColumns=24
inDegrees=yes

Units are S.I. units (second, meters, Newtons, ...)
Angles are in degrees.

endheader
time	pelvis_tilt	pelvis_list	pelvis_rotation	pelvis_tx	pelvis_ty	pelvis_tz	hip_flexion_r	hip_adduction_r	hip_rotation_r	knee_angle_r	ankle_angle_r	subtalar_angle_r	mtp_angle_r	hip_flexion_l	hip_adduction_l	hip_rotation_l	knee_angle_l	ankle_angle_l	subtalar_angle_l	mtp_angle_l	lumbar_extension	lumbar_bending	lumbar_rotation
      3.09500000	      4.93317742	     -5.08836686	      1.21060591	      0.22433341	      1.01927968	      0.02411620	      2.08328564	      6.96947746	     -2.50702053	     -9.35201761	      5.95247242	      1.54168265	      6.63768833	     20.26027824	     -9.67032887	     -5.97449014	    -68.30491546	     -2.72711317	    -10.23183633	     30.83440447	    -18.74233176	      7.40598460	      3.97460611
      3.10000000	      5.06403287	     -5.00927725	      1.05410318	      0.22896931	      1.01995236	      0.02453299	      1.49331289	      6.90657889	     -2.47536906	     -9.08501363	      6.11712256	      1.78965903	      6.56561296	     20.53711880	     -9.59348928	     -6.19546804	    -67.84193938	     -2.32650703	     -9.96933465	     30.79186784	    -18.93256226	      7.27484202	      4.13219032
      3.10500000	      5.15682291	     -4.90081094	      0.88297323	      0.23356841	      1.02054026	      0.02493412	      0.96815286	      6.80556569	     -2.44099206	     -8.86165710	      6.29451044	      2.01148617	      6.52182185	     20.83174414	     -9.47887231	     -6.42011750	    -67.32354135	     -1.92496146	     -9.69380303	     30.75781293	    -19.08151212	      7.10769992	      4.32192769
      3.11000000	      5.27729903	     -4.82010390	      0.72007053	      0.23820740	      1.02112740	      0.02533732	      0.39741272	      6.73286965	     -2.40161548	     -8.60936777	      6.46444120	      2.24986727	      6.44820098	     21.07793918	     -9.40084685	     -6.63936337	    -66.76023133	     -1.52098143	     -9.42389353	     30.65403934	    -19.25414153	      6.96999456	      4.49712722
      3.11500000	      5.39290788	     -4.73045251	      0.55308525	      0.24285481	      1.02168611	      0.02572955	     -0.16575539	      6.64642225	     -2.35608721	     -8.36240735	      6.63558901	      2.47648409	      6.35944353	     21.30420196	     -9.31194801	     -6.85971777	    -66.14336658	     -1.13022493	     -9.16054013	     30.50748478	    -19.41864729	      6.82198259	      4.66789244
      3.12000000	      5.51553720	     -4.63617986	      0.38084550	      0.24753051	      1.02223112	      0.02612295	     -0.73755115	      6.55179901	     -2.31080155	     -8.11501502	      6.80499400	      2.70324025	      6.25265203	     21.49308450	     -9.22558485	     -7.09518137	    -65.46977050	     -0.73976047	     -8.88243484	     30.32212002	    -19.58542802	      6.66692198	      4.82858478
      3.12500000	      5.65956371	     -4.56459196	      0.25535209	      0.25221581	      1.02272537	      0.02642373	     -1.33239826	      6.47443777	     -2.33146960	     -7.87416383	      7.11846131	      3.03560757	      5.13659786	     21.66338426	     -9.13747435	     -7.26134645	    -64.79234496	     -0.15276670	     -8.45808973	     28.40224112	    -19.76915745	      6.55051098	      4.94777854
      3.13000000	      5.72109500	     -4.49574098	      0.07065011	      0.25684574	      1.02308905	      0.02682363	     -1.82741085	      6.40218315	     -2.21602104	     -7.63714102	      7.25329950	      3.18855127	      5.09271445	     21.89569991	     -9.07749835	     -7.46267878	    -64.05296750	      0.16295745	     -8.14201138	     28.43143664	    -19.86747194	      6.41683905	      5.14345798
      3.13500000	      5.87350001	     -4.43161557	     -0.09122289	      0.26155144	      1.02354565	      0.02717366	     -2.43993818	      6.33019997	     -2.15102670	     -7.37121603	      7.40544598	      3.39205690	      4.98291033	     21.99544913	     -9.02088427	     -7.66593426	    -63.25274088	      0.48776944	     -7.86976305	     28.34553909	    -20.05922741	      6.29568910	      5.29274781
      3.14000000	      6.00717521	     -4.35459472	     -0.24350548	      0.26624966	      1.02394617	      0.02748409	     -3.02105469	      6.23952706	     -2.10469200	     -7.12498371	      7.56215905	      3.58774314	      4.80513907	     22.09801729	     -8.93543401	     -7.83661282	    -62.40899251	      0.80362385	     -7.56540157	     28.15570400	    -20.22349407	      6.16370876	      5.46066138
      3.14500000	      6.07713190	     -4.28702939	     -0.41392734	      0.27090090	      1.02420161	      0.02781335	     -3.51374350	      6.15636244	     -1.99979124	     -6.91236401	      7.77118658	      3.75883322	      4.70425635	     22.26247084	     -8.86620074	     -7.99648870	    -61.54417806	      1.06127871	     -7.19714782	     28.05035936	    -20.32203940	      6.03767471	      5.62960207
      3.15000000	      6.22355163	     -4.22343080	     -0.56677863	      0.27561811	      1.02453633	      0.02811610	     -4.11208732	      6.07485830	     -1.91148612	     -6.66014324	      7.94205726	      3.94184352	      4.53519571	     22.31208224	     -8.79875860	     -8.15273827	    -60.62665425	      1.33444092	     -6.86116375	     27.85393150	    -20.49650616	      5.91823637	      5.77588346
